<svg width="1200" height="630" viewBox="0 0 1200 630" fill="none" xmlns="http://www.w3.org/2000/svg">
  <rect width="1200" height="630" rx="40" fill="#020617"/>
  <rect x="20" y="20" width="1160" height="590" rx="32" fill="url(#panel)" stroke="rgba(255,255,255,0.08)"/>
  <circle cx="965" cy="136" r="124" fill="url(#glow1)" fill-opacity="0.8"/>
  <circle cx="210" cy="504" r="160" fill="url(#glow2)" fill-opacity="0.65"/>
  <g opacity="0.16">
    <path d="M80 120H1120" stroke="white" stroke-width="1"/>
    <path d="M80 200H1120" stroke="white" stroke-width="1"/>
    <path d="M80 280H1120" stroke="white" stroke-width="1"/>
    <path d="M80 360H1120" stroke="white" stroke-width="1"/>
    <path d="M80 440H1120" stroke="white" stroke-width="1"/>
    <path d="M80 520H1120" stroke="white" stroke-width="1"/>
    <path d="M160 80V550" stroke="white" stroke-width="1"/>
    <path d="M280 80V550" stroke="white" stroke-width="1"/>
    <path d="M400 80V550" stroke="white" stroke-width="1"/>
    <path d="M520 80V550" stroke="white" stroke-width="1"/>
    <path d="M640 80V550" stroke="white" stroke-width="1"/>
    <path d="M760 80V550" stroke="white" stroke-width="1"/>
    <path d="M880 80V550" stroke="white" stroke-width="1"/>
    <path d="M1000 80V550" stroke="white" stroke-width="1"/>
  </g>
  <rect x="90" y="88" width="180" height="38" rx="19" fill="rgba(59,130,246,0.16)" stroke="rgba(191,219,254,0.35)"/>
  <text x="123" y="112" fill="#BFDBFE" font-family="Manrope, Arial, sans-serif" font-size="16" font-weight="700" letter-spacing="5">PORTFOLIO</text>
  <text x="90" y="220" fill="white" font-family="Outfit, Arial, sans-serif" font-size="78" font-weight="700">Saroj Mehta</text>
  <text x="90" y="286" fill="#BFDBFE" font-family="Manrope, Arial, sans-serif" font-size="28" font-weight="600">IT Student  |  Web Developer  |  Problem Solver</text>
  <text x="90" y="360" fill="#CBD5E1" font-family="Manrope, Arial, sans-serif" font-size="28">
    Building practical digital solutions with clean interfaces,
  </text>
  <text x="90" y="404" fill="#CBD5E1" font-family="Manrope, Arial, sans-serif" font-size="28">
    secure workflows, and a strong full-stack learning mindset.
  </text>
  <rect x="90" y="462" width="258" height="56" rx="28" fill="#2563EB"/>
  <text x="132" y="497" fill="white" font-family="Manrope, Arial, sans-serif" font-size="22" font-weight="700">React • MERN • Git</text>
  <rect x="366" y="462" width="344" height="56" rx="28" fill="rgba(255,255,255,0.08)" stroke="rgba(255,255,255,0.12)"/>
  <text x="405" y="497" fill="#E2E8F0" font-family="Manrope, Arial, sans-serif" font-size="22" font-weight="600">Featured: Library Management System</text>
  <defs>
    <linearGradient id="panel" x1="40" y1="20" x2="1160" y2="610" gradientUnits="userSpaceOnUse">
      <stop stop-color="#0F172A"/>
      <stop offset="1" stop-color="#020617"/>
    </linearGradient>
    <radialGradient id="glow1" cx="0" cy="0" r="1" gradientUnits="userSpaceOnUse" gradientTransform="translate(965 136) rotate(90) scale(124)">
      <stop stop-color="#60A5FA"/>
      <stop offset="1" stop-color="#60A5FA" stop-opacity="0"/>
    </radialGradient>
    <radialGradient id="glow2" cx="0" cy="0" r="1" gradientUnits="userSpaceOnUse" gradientTransform="translate(210 504) rotate(90) scale(160)">
      <stop stop-color="#22D3EE"/>
      <stop offset="1" stop-color="#22D3EE" stop-opacity="0"/>
    </radialGradient>
  </defs>
</svg>
